<?xml version="1.0" standalone="no"?>
<!DOCTYPE svg PUBLIC "-//W3C//DTD SVG 20010904//EN"
 "http://www.w3.org/TR/2001/REC-SVG-20010904/DTD/svg10.dtd">
<svg version="1.0" xmlns="http://www.w3.org/2000/svg"
 width="1844.000000pt" height="1803.000000pt" viewBox="0 0 1844.000000 1803.000000"
 preserveAspectRatio="xMidYMid meet">

<g transform="translate(0.000000,1803.000000) scale(0.100000,-0.100000)"
fill="#000000" stroke="none">
<path d="M6174 18002 c-69 -33 -116 -112 -168 -283 -76 -249 -116 -763 -86
-1099 10 -103 45 -344 55 -374 3 -6 -62 -48 -144 -94 -1728 -968 -2962 -2731
-3285 -4692 -14 -85 -28 -169 -31 -186 -5 -31 -4 -33 81 -75 456 -225 717
-704 691 -1264 -18 -371 -158 -690 -399 -910 l-66 -60 182 -362 181 -363 69 0
c61 0 67 2 61 18 -14 37 -44 182 -54 262 -16 121 -13 377 4 500 52 364 198
663 445 911 168 169 338 276 557 352 493 172 1047 105 1418 -171 147 -109 292
-280 375 -439 17 -35 35 -61 40 -58 4 2 10 22 13 43 13 76 120 453 188 657
209 627 494 1216 852 1762 54 83 100 155 101 158 0 4 -71 38 -159 76 -444 191
-860 436 -1196 703 -241 192 -506 475 -668 716 -80 117 -175 279 -169 285 2 2
29 -5 61 -15 138 -46 286 -53 341 -16 l28 18 -132 53 c-142 57 -268 126 -338
182 -45 37 -103 95 -98 100 1 2 47 -9 102 -22 299 -77 559 -16 759 176 l61 58
-14 -87 c-19 -122 -10 -386 17 -513 56 -258 164 -484 327 -680 203 -243 493
-410 844 -486 121 -26 449 -26 570 0 475 101 853 397 1059 828 l48 100 7 -38
c20 -128 166 -208 376 -208 121 0 185 14 287 61 233 106 283 312 104 425 -187
119 -542 73 -694 -90 -26 -28 -47 -48 -47 -46 0 2 9 41 19 87 48 205 50 361 7
621 -16 95 -19 140 -12 143 25 8 245 47 291 50 28 3 65 10 84 16 18 5 95 10
170 10 143 0 229 -14 349 -55 65 -22 67 -24 70 -59 2 -21 -6 -88 -17 -150 -59
-323 6 -697 169 -968 38 -64 44 -80 29 -75 -32 10 -58 -4 -86 -48 -38 -60
-118 -142 -174 -178 -100 -64 -240 -86 -345 -54 -72 22 -101 19 -120 -11 -13
-19 -15 -32 -8 -52 12 -34 44 -49 142 -69 166 -34 349 20 481 143 77 71 142
157 150 197 l6 30 45 -59 c67 -89 245 -261 343 -331 421 -298 1012 -335 1499
-93 415 207 681 558 790 1042 20 88 23 131 23 293 l0 190 91 -47 c184 -96 340
-133 561 -133 175 0 163 10 113 -102 -62 -138 -182 -288 -259 -325 -33 -16
-33 -16 -10 -23 13 -5 87 -8 164 -8 134 0 148 3 319 47 99 25 180 45 182 43 3
-3 -222 -355 -296 -459 -87 -124 -315 -352 -461 -461 -342 -255 -808 -469
-1504 -693 -115 -37 -213 -70 -218 -74 -4 -3 18 -42 50 -86 137 -190 377 -578
444 -716 22 -46 24 -47 94 -63 214 -47 355 -191 399 -407 13 -62 16 -147 16
-424 l0 -347 57 -191 c31 -105 58 -193 60 -195 1 -2 37 32 80 76 526 539 1345
684 2028 359 252 -120 490 -320 638 -536 l57 -84 0 367 0 367 275 0 275 0 0
123 c0 464 -78 1054 -206 1557 -419 1655 -1476 3100 -2929 4007 -88 55 -191
117 -228 138 -41 22 -66 42 -63 50 16 43 49 167 71 268 53 248 75 466 75 767
0 218 -14 346 -49 461 -52 167 -116 194 -405 170 -295 -26 -479 -63 -750 -152
-306 -101 -584 -266 -774 -461 l-43 -45 95 -57 c53 -32 139 -90 193 -129 l98
-72 45 43 c180 171 493 287 835 307 105 7 112 6 145 -17 25 -17 41 -39 55 -78
18 -49 20 -80 20 -285 -1 -199 -4 -246 -23 -343 -41 -205 -129 -433 -224 -581
l-35 -53 50 -87 c62 -107 167 -305 167 -314 0 -4 -24 6 -52 22 -87 49 -228 99
-364 128 -118 26 -147 28 -339 28 -229 0 -291 -9 -475 -67 -234 -74 -401 -179
-586 -370 -114 -118 -138 -150 -209 -271 -92 -159 -62 -146 -250 -103 -266 62
-516 75 -685 37 -52 -12 -137 -33 -188 -47 -71 -20 -95 -24 -106 -15 -8 7 -39
54 -70 106 -161 270 -352 447 -628 586 -122 61 -199 90 -308 117 -317 77 -667
40 -978 -104 -206 -94 -447 -284 -544 -426 -21 -32 -41 -58 -45 -58 -3 0 1 10
9 23 8 12 48 83 88 157 41 74 91 163 112 198 21 34 38 65 38 68 0 10 191 296
262 393 39 53 60 86 46 74 -13 -13 -28 -23 -32 -23 -10 0 -68 128 -105 234
-17 49 -44 146 -58 215 -25 115 -27 145 -26 341 0 233 19 377 62 492 49 127
82 141 254 103 210 -47 399 -124 547 -223 78 -52 210 -176 238 -224 9 -16 20
-28 24 -28 4 0 51 29 105 64 54 35 140 87 191 116 l92 53 -17 28 c-42 65 -174
207 -263 281 -290 243 -651 415 -1100 525 -223 54 -317 63 -376 35z m1370
-2518 c182 -35 378 -120 521 -227 157 -117 310 -306 389 -478 217 -477 128
-1023 -229 -1406 -420 -452 -1109 -532 -1624 -189 -550 366 -732 1109 -409
1672 245 430 677 670 1163 648 61 -3 146 -12 189 -20z m3866 1 c254 -55 450
-163 635 -349 97 -98 116 -122 157 -206 26 -52 67 -126 93 -165 82 -126 128
-320 127 -545 0 -347 -131 -646 -388 -890 -183 -173 -395 -283 -647 -337 -104
-22 -369 -25 -472 -4 -501 99 -899 495 -1006 1001 -26 125 -31 343 -10 460 52
291 211 568 432 755 183 155 409 260 634 295 87 13 356 4 445 -15z"/>
<path d="M7903 14579 c-83 -41 -158 -155 -189 -286 -31 -135 -15 -323 37 -425
43 -85 134 -157 198 -158 118 -1 235 128 277 306 20 87 20 250 0 327 -55 203
-190 302 -323 236z"/>
<path d="M10602 14679 c-121 -60 -212 -283 -198 -484 10 -134 46 -232 114
-307 44 -49 85 -68 147 -68 223 0 365 422 239 707 -66 152 -183 210 -302 152z"/>
<path d="M250 10825 l0 -285 170 0 170 0 0 -1555 0 -1555 340 0 340 0 0 685 0
685 233 0 c287 0 318 -7 392 -84 42 -44 86 -123 284 -517 265 -524 298 -585
354 -647 97 -105 168 -122 515 -122 l252 0 0 285 0 285 -73 0 c-100 0 -164 21
-209 67 -24 26 -98 162 -232 429 -169 337 -202 398 -246 442 -28 29 -65 59
-82 68 -16 8 -28 17 -26 19 1 1 30 13 63 27 121 48 254 155 344 277 239 322
277 824 92 1206 -137 282 -373 462 -720 548 -84 20 -109 21 -1023 24 l-938 4
0 -286z m1757 -312 c87 -29 140 -62 200 -125 62 -66 110 -158 129 -247 18 -85
18 -267 -1 -353 -32 -155 -128 -284 -256 -347 -104 -51 -185 -60 -516 -61
l-293 0 0 581 0 581 338 -4 c308 -4 342 -6 399 -25z"/>
<path d="M8032 10833 l3 -278 128 -3 c147 -3 171 -12 187 -71 6 -21 10 -170
10 -353 l0 -317 -77 77 c-89 88 -158 131 -283 179 -122 46 -248 66 -410 66
-150 -1 -226 -11 -354 -48 -366 -106 -647 -396 -775 -799 -128 -402 -95 -939
81 -1290 87 -175 242 -355 387 -451 362 -239 891 -240 1224 -1 70 50 160 141
202 204 15 23 32 42 36 42 5 0 9 -37 9 -82 0 -131 41 -202 145 -250 49 -22 58
-23 418 -26 l367 -3 0 276 0 275 -114 0 c-129 0 -157 7 -183 47 -17 26 -18
101 -23 1448 l-5 1420 -23 51 c-29 63 -72 106 -137 136 -49 23 -58 23 -433 26
l-382 3 2 -278z m-118 -1292 c273 -97 438 -367 453 -742 9 -211 -18 -359 -91
-514 -54 -114 -125 -200 -218 -262 -113 -75 -194 -98 -353 -98 -110 0 -140 4
-197 23 -172 59 -315 204 -387 392 -52 134 -66 225 -65 420 1 154 4 186 26
271 74 277 247 463 488 525 81 20 267 12 344 -15z"/>
<path d="M9620 10825 l0 -285 170 0 170 0 0 -1555 0 -1555 340 0 340 0 0 745
0 745 590 0 590 0 0 285 0 285 -590 0 -590 0 0 525 0 526 385 -3 385 -3 27
-28 c28 -27 28 -30 31 -167 l4 -140 304 0 305 0 -3 343 c-4 295 -6 348 -22
388 -24 66 -76 122 -138 150 l-53 24 -1122 3 -1123 2 0 -285z"/>
<path d="M4690 10129 c-602 -54 -1042 -449 -1172 -1052 -30 -139 -33 -475 -5
-610 58 -283 200 -545 397 -730 435 -409 1146 -490 1729 -197 144 72 338 207
329 229 -10 26 -264 441 -270 441 -4 0 -40 -25 -80 -55 -203 -153 -503 -249
-726 -231 -393 32 -665 284 -727 674 l-7 42 915 0 915 0 8 66 c3 37 4 146 1
243 -4 139 -11 199 -31 283 -100 426 -355 720 -732 843 -152 50 -364 71 -544
54z m255 -514 c129 -34 253 -132 318 -252 30 -57 67 -187 67 -240 l0 -33 -575
0 -575 0 6 28 c30 128 123 286 211 359 150 126 376 182 548 138z"/>
<path d="M13633 10130 c-181 -15 -377 -68 -538 -145 -393 -188 -654 -523 -747
-958 -31 -147 -31 -408 1 -557 60 -282 171 -490 366 -686 207 -207 469 -341
775 -395 159 -29 401 -29 560 0 617 108 1059 543 1155 1136 8 49 15 151 15
225 0 228 -41 412 -134 605 -70 145 -157 265 -275 378 -246 235 -549 366 -918
397 -129 11 -126 11 -260 0z m340 -579 c268 -69 478 -281 559 -566 20 -69 23
-102 22 -240 0 -144 -3 -169 -27 -248 -15 -49 -39 -112 -53 -140 -222 -442
-784 -571 -1181 -272 -215 161 -337 468 -303 763 37 330 237 589 531 688 141
48 303 53 452 15z"/>
<path d="M15480 9796 l0 -276 103 0 c124 0 209 -13 242 -37 19 -14 469 -679
483 -713 2 -4 -189 -305 -423 -669 -234 -363 -425 -663 -425 -666 0 -3 163 -5
363 -5 l362 1 241 392 c133 216 252 411 265 434 13 24 27 43 31 43 4 0 19 -24
33 -52 14 -29 132 -224 264 -433 l238 -380 367 -3 366 -2 -67 102 c-36 57
-229 356 -429 665 -200 308 -364 564 -364 568 0 9 439 666 464 693 41 46 72
54 223 60 l143 5 0 274 0 274 -312 -3 -313 -3 -60 -28 c-35 -17 -79 -48 -105
-76 -50 -53 -361 -565 -409 -673 -17 -38 -34 -68 -38 -68 -5 0 -28 39 -52 88
-70 140 -342 591 -389 643 -27 30 -69 61 -110 81 l-67 33 -312 3 -313 3 0
-275z"/>
<path d="M15390 9260 c0 -5 9 -42 20 -82 50 -184 67 -464 40 -657 -64 -462
-319 -866 -705 -1117 -452 -293 -1056 -363 -1590 -183 -143 49 -221 87 -342
168 -102 69 -195 149 -284 248 -34 38 -65 69 -70 71 -4 2 -18 -16 -30 -40 -64
-127 -220 -320 -346 -431 -207 -181 -416 -290 -728 -382 -605 -178 -1231 -243
-2103 -216 -344 10 -903 35 -1352 61 -229 13 -880 13 -1090 0 -211 -13 -428
-35 -605 -61 -77 -12 -156 -22 -175 -23 l-35 -1 -22 155 c-12 85 -29 233 -38
330 -9 96 -20 205 -23 242 l-7 67 -75 -42 c-704 -396 -1584 -303 -2111 223
-58 58 -122 125 -142 150 l-36 45 -1 -302 0 -303 -140 0 c-77 0 -140 -3 -140
-8 0 -15 174 -310 267 -452 168 -256 360 -512 530 -709 36 -40 63 -74 61 -76
-2 -2 -48 -29 -103 -60 -251 -144 -509 -319 -706 -477 -57 -46 -107 -86 -112
-89 -4 -3 6 -43 23 -89 45 -123 134 -420 182 -610 23 -91 42 -166 43 -168 1
-2 429 228 882 474 l82 44 0 -252 c0 -274 30 -630 54 -655 14 -13 660 52 1015
103 101 14 186 23 189 20 8 -8 4 -469 -6 -571 -4 -49 -7 -91 -7 -92 1 0 120 5
266 13 146 7 293 14 327 14 l63 0 -7 -152 c-6 -146 -6 -151 13 -145 10 3 91
31 179 62 415 147 893 250 1700 365 286 41 292 42 425 31 358 -28 801 -23
1170 14 1046 107 2035 450 2921 1015 411 262 778 559 1141 922 l197 198 -52
55 c-55 59 -67 65 -67 36 0 -10 -9 -30 -21 -45 -45 -57 -31 -56 -619 -56 -597
0 -592 0 -630 62 -19 32 -20 49 -20 516 0 542 -2 525 72 563 35 18 65 19 530
19 306 0 507 -4 530 -10 25 -7 54 -30 92 -72 47 -52 56 -58 56 -38 0 38 37 87
80 104 31 12 77 16 203 16 180 0 236 -14 258 -64 l12 -25 68 35 c88 44 173 64
275 64 l81 0 94 172 c268 495 483 1056 614 1602 46 194 97 457 91 473 -7 16
-306 19 -306 3z"/>
<path d="M14713 6805 c-197 -53 -314 -216 -300 -418 7 -106 46 -185 127 -260
86 -80 146 -101 285 -102 101 0 115 2 173 29 81 37 162 122 193 203 13 36 24
90 27 141 l5 82 -212 0 -211 0 0 -75 0 -75 115 0 c79 0 115 -4 115 -11 0 -26
-44 -81 -84 -104 -145 -85 -323 3 -351 172 -15 92 45 206 130 244 101 46 258
2 287 -81 3 -8 164 32 175 44 9 9 -37 83 -74 117 -97 93 -261 131 -400 94z"/>
<path d="M16747 6809 c-81 -19 -144 -66 -179 -133 -16 -31 -19 -54 -16 -112 3
-63 7 -77 34 -111 45 -55 96 -79 229 -108 129 -28 150 -36 165 -65 16 -30 12
-50 -19 -81 -26 -26 -37 -29 -89 -29 -81 0 -123 29 -158 108 -1 2 -43 -5 -93
-14 -102 -20 -106 -25 -72 -93 25 -47 80 -97 140 -124 38 -17 66 -21 166 -21
105 -1 126 2 170 22 99 46 145 113 145 212 0 137 -65 195 -270 240 -52 11
-107 25 -123 31 -50 21 -49 97 3 124 68 35 165 7 190 -56 12 -29 16 -31 52
-25 106 17 138 28 138 46 0 29 -62 112 -105 142 -72 50 -208 71 -308 47z"/>
<path d="M12830 6415 l0 -385 300 0 300 0 0 80 0 80 -205 0 -205 0 0 75 0 75
185 0 185 0 0 75 0 75 -185 0 -185 0 0 80 0 80 205 0 205 0 0 75 0 75 -300 0
-300 0 0 -385z"/>
<path d="M13560 6415 l0 -385 90 0 90 0 2 228 3 227 199 -227 200 -228 73 0
73 0 0 385 0 385 -90 0 -90 0 -2 -232 -3 -231 -195 231 -195 231 -77 1 -78 0
0 -385z"/>
<path d="M15340 6415 l0 -385 280 0 280 0 0 80 0 80 -190 0 -190 0 0 305 0
305 -90 0 -90 0 0 -385z"/>
<path d="M15970 6720 l0 -80 75 0 75 0 0 -225 0 -225 -75 0 -75 0 0 -80 0 -80
240 0 240 0 0 80 0 80 -75 0 -75 0 0 225 0 225 75 0 75 0 0 80 0 80 -240 0
-240 0 0 -80z"/>
<path d="M17300 6415 l0 -385 90 0 90 0 0 155 0 155 165 0 165 0 0 -155 0
-155 95 0 95 0 0 385 0 385 -95 0 -95 0 0 -150 0 -150 -165 0 -165 0 0 150 0
150 -90 0 -90 0 0 -385z"/>
</g>
</svg>
